<svg width="44" height="44" viewBox="0 0 44 44" fill="none" xmlns="http://www.w3.org/2000/svg">
<rect width="44" height="44" rx="7" fill="#FFE9A2"/>
<path d="M26.555 21.1675L20.555 17.1675C20.4044 17.067 20.2293 17.0093 20.0484 17.0005C19.8675 16.9918 19.6877 17.0323 19.528 17.1177C19.3684 17.2032 19.2349 17.3304 19.1419 17.4858C19.0489 17.6412 18.9999 17.8189 19 18V26C18.9999 26.1811 19.0489 26.3588 19.1419 26.5142C19.2349 26.6696 19.3684 26.7968 19.528 26.8823C19.6877 26.9677 19.8675 27.0082 20.0484 26.9995C20.2293 26.9907 20.4044 26.933 20.555 26.8325L26.555 22.8325C26.6922 22.7412 26.8047 22.6175 26.8825 22.4722C26.9603 22.327 27.001 22.1648 27.001 22C27.001 21.8352 26.9603 21.673 26.8825 21.5278C26.8047 21.3826 26.6922 21.2588 26.555 21.1675ZM21 24.1313V19.875L24.1975 22L21 24.1313ZM35.2913 14.69C35.1735 14.2292 34.9478 13.803 34.6329 13.4465C34.318 13.0901 33.9228 12.8137 33.48 12.64C29.195 10.985 22.375 11 22 11C21.625 11 14.805 10.985 10.52 12.64C10.0772 12.8137 9.68204 13.0901 9.36712 13.4465C9.05219 13.803 8.82653 14.2292 8.70875 14.69C8.385 15.9375 8 18.2175 8 22C8 25.7825 8.385 28.0625 8.70875 29.31C8.82636 29.771 9.05194 30.1975 9.36687 30.5542C9.68181 30.9108 10.0771 31.1875 10.52 31.3613C14.625 32.945 21.05 33 21.9175 33H22.0825C22.95 33 29.3787 32.945 33.48 31.3613C33.9229 31.1875 34.3182 30.9108 34.6331 30.5542C34.9481 30.1975 35.1736 29.771 35.2913 29.31C35.615 28.06 36 25.7825 36 22C36 18.2175 35.615 15.9375 35.2913 14.69ZM33.355 28.815C33.3169 28.9684 33.243 29.1105 33.1394 29.2298C33.0357 29.3491 32.9053 29.4421 32.7588 29.5013C28.8025 31.0288 22.0738 31.0013 22.0088 31.0013H22C21.9325 31.0013 15.2087 31.0263 11.25 29.5013C11.1035 29.4421 10.973 29.3491 10.8694 29.2298C10.7657 29.1105 10.6918 28.9684 10.6537 28.815C10.35 27.6738 10 25.5713 10 22C10 18.4288 10.35 16.3263 10.645 15.1913C10.6824 15.037 10.756 14.8938 10.8596 14.7736C10.9633 14.6534 11.0941 14.5596 11.2413 14.5C15.0563 13.0263 21.4487 13 21.9725 13H22.0063C22.0738 13 28.8038 12.9775 32.7563 14.5C32.9028 14.5591 33.0332 14.6522 33.1369 14.7715C33.2405 14.8907 33.3144 15.0329 33.3525 15.1863C33.65 16.3263 34 18.4288 34 22C34 25.5713 33.65 27.6738 33.355 28.8088V28.815Z" fill="black"/>
</svg>
